<svg width="44" height="39" fill="none" xmlns="http://www.w3.org/2000/svg"><path fill-rule="evenodd" clip-rule="evenodd" d="M40.731 23.205l-.047.142c-.208.627-.603 1.466-1.359 2.137.17.41.292.856.344 1.328h.273l-.253.233c.018.303.007.615-.039.935l-.008.056c.234.265.442.542.63.825a6.362 6.362 0 011.08 3.53c0 1.895-.752 3.476-1.97 4.696C38.087 38.387 36.475 39 34.75 39c-1.76 0-3.382-.594-4.698-1.913-1.21-1.213-1.805-2.681-1.894-4.275H22.82c-.103 1.71-.831 3.147-1.957 4.275-1.296 1.3-2.91 1.913-4.634 1.913-1.76 0-3.382-.594-4.698-1.913-1.316-1.319-1.905-2.94-1.905-4.696 0-1.09.229-2.181.826-3.259l.037-.067.041-.066c.187-.298.393-.578.617-.84L7.474 10.125H5.426c-.936 0-2.228-.265-3.223-1.33C1.142 7.8.881 6.51.881 5.579V4.547a4.51 4.51 0 011.326-3.214A4.553 4.553 0 015.426 0h6.623a4.27 4.27 0 013.027 1.269 5.438 5.438 0 011.24 1.844l.103.256.15.756h22.81c1.45 0 2.667.624 3.53 1.663l.103.123.089.133c.565.85 1.062 2.166.672 3.67l-3.042 13.491zm.127-14.21c.129-.452 0-.903-.257-1.29-.322-.387-.708-.58-1.222-.58H14.107l-.579-2.9c-.128-.323-.321-.58-.578-.838a1.268 1.268 0 00-.9-.387H5.425c-.45 0-.836.193-1.093.451-.322.322-.45.71-.45 1.096v1.031c0 .451.128.838.45 1.096.257.322.643.451 1.093.451h4.501l4.502 22.107c-.104.07-.203.14-.297.213a4.337 4.337 0 00-1.054 1.14c-.321.581-.45 1.161-.45 1.806 0 1.03.322 1.869 1.029 2.578.707.709 1.543 1.031 2.572 1.031.965 0 1.8-.322 2.508-1.031.608-.61.979-1.315 1.07-2.157.016-.136.023-.277.023-.421 0-1.032-.385-1.87-1.093-2.578h13.504c-.772.709-1.093 1.546-1.093 2.578 0 .144.006.285.019.422a3.378 3.378 0 001.01 2.156c.707.709 1.543 1.031 2.572 1.031.965 0 1.8-.322 2.508-1.031.707-.71 1.093-1.547 1.093-2.578 0-.645-.193-1.29-.579-1.87a4.098 4.098 0 00-.839-.943 3.54 3.54 0 00-.64-.41l.386-1.611a1.717 1.717 0 00-.061-.744 2.14 2.14 0 00-.26-.545c-.322-.387-.708-.58-1.158-.58H17.901l-.386-2.063h18.842c.321 0 .643-.064.9-.322.027-.02.053-.042.079-.065.218-.197.385-.491.5-.838l3.022-13.406z" fill="#000"/></svg>