<?xml version="1.0" standalone="no"?>
<!DOCTYPE svg PUBLIC "-//W3C//DTD SVG 20010904//EN"
 "http://www.w3.org/TR/2001/REC-SVG-20010904/DTD/svg10.dtd">
<svg version="1.0" xmlns="http://www.w3.org/2000/svg"
 width="34.000000pt" height="38.000000pt" viewBox="0 0 34.000000 38.000000"
 preserveAspectRatio="xMidYMid meet">

<g transform="translate(0.000000,38.000000) scale(0.100000,-0.100000)"
fill="#000000" stroke="none">
<path d="M129 312 c-27 -23 -30 -75 -6 -99 9 -9 30 -16 46 -16 67 0 95 72 45
112 -33 26 -55 26 -85 3z m79 -14 c15 -15 15 -61 0 -76 -27 -27 -88 0 -88 39
0 40 60 65 88 37z"/>
<path d="M78 173 c-22 -25 -30 -67 -18 -97 9 -26 11 -26 115 -26 102 0 106 1
115 24 11 29 -3 88 -25 106 -13 11 -23 10 -55 0 -31 -10 -46 -11 -65 -2 -35
16 -49 15 -67 -5z m97 -14 c6 0 26 3 45 6 32 6 37 4 48 -19 15 -34 15 -59 0
-74 -16 -16 -170 -16 -186 0 -15 15 -15 53 -1 80 9 17 17 19 47 13 21 -3 42
-6 47 -6z"/>
</g>
</svg>
