<svg width="220" height="67" fill="none" xmlns="http://www.w3.org/2000/svg"><path d="M43.585 15.665c-1.253 0-2.421-.293-3.505-.93a4.184 4.184 0 00-.785-.377c-.451-.153-.846.118-.869.597a2.3 2.3 0 00.113.829c.243.75.728 1.347 1.287 1.894.214.208.435.417.627.648.084.101.152.299.107.395-.045.101-.243.197-.367.186a7.712 7.712 0 01-1.191-.192c-.316-.073-.621-.226-.937-.316-.502-.14-.835.028-1.05.502-.04.096-.08.192-.096.293-.226 1.313-.3 2.633-.13 3.957.068.547.43.727.903.44 1-.615 2.05-.79 3.19-.457.502.147.739-.045.88-.558.13-.49.26-.98.452-1.448.338-.812 1.004-1.184 1.874-1.083.541.062.93.395 1.23.823.836 1.207.503 3.033-.711 3.862-.407.276-.672.614-.796 1.082-.124.462.006.76.457.913.333.118.694.163 1.039.26.35.1.711.19 1.033.354.559.288.903.739.84 1.404-.061.665-.4 1.167-1.026 1.387-.373.13-.79.146-1.186.191-.299.034-.604-.005-.897.04-.17.028-.401.118-.452.242-.05.124.045.361.147.496.4.53.852 1.026 1.247 1.562.903 1.234 1.57 2.61 2.145 4.019.384.936.717 1.894 1.056 2.852.27.772.367 1.539-.006 2.328-.203.434-.079.727.35 1.004.723.467 1.389.997 1.947 1.657.508.597.813 1.285.898 2.063.056.53-.08 1.026-.294 1.505-.237.53-.18.643.215 1.06.339.355.66.755.886 1.19.83 1.606 1.287 3.314 1.123 5.129-.152 1.651-.615 3.207-1.789 4.464-1.49 1.596-3.336 2.26-5.458 1.866-2.162-.4-3.754-1.674-4.584-3.737-.372-.936-.558-1.94-.83-2.914-.016-.063-.022-.13-.033-.192-.09-.468-.35-.598-.774-.372-.575.304-1.145.609-1.806.682-1.067.118-2.11.028-3.16-.209-1.756-.4-3.387-1.121-5.041-1.792a.607.607 0 00-.108-.04c-.852-.338-1.055-.282-1.552.496-.677 1.06-1.496 1.95-2.687 2.441-2.24.93-5.023.085-6.322-1.962-1.202-1.893-1.563-3.98-1.275-6.183.22-1.703.835-3.287 1.563-4.831.108-.226.192-.474.215-.716.011-.135-.096-.35-.209-.412-.119-.062-.35-.039-.463.046a2.28 2.28 0 00-.525.54c-1.315 1.816-2.286 3.817-3.082 5.903-.564 1.477-.942 3.004-1.247 4.554a4.409 4.409 0 01-.18.677c-.255.67-.673.85-1.339.586a8.627 8.627 0 01-.62-.27 1.76 1.76 0 00-1.451-.046c-.344.13-.694.231-1.044.344-.333.107-.65.079-.954-.096-.147-.084-.3-.163-.44-.253-.542-.339-1.084-.35-1.66-.08-.31.147-.65.266-.988.294-.564.05-.779-.299-.474-.784.265-.428.587-.823.931-1.195.333-.366.723-.687 1.084-1.031.102-.096.209-.192.305-.293.62-.632.52-1.167-.31-1.511-.633-.265-1.293-.468-1.914-.755-2.263-1.049-3.77-2.774-4.55-5.141C.184 42.4-.115 41.25.043 40.039c.322-2.497 1.248-4.718 3.133-6.448 1.118-1.026 2.337-1.922 3.754-2.509.417-.174.812-.389 1.23-.558a1.86 1.86 0 01.655-.135c.214-.006.27.158.13.327a1.424 1.424 0 01-.294.26c-.57.416-1.129.85-1.716 1.234-.937.62-1.496 1.544-2.043 2.48-.92 1.573-1.428 3.258-1.163 5.09.26 1.804 1.033 3.349 2.49 4.498 1.314 1.043 3.38 1.19 4.842.361.689-.389 1.163-.947 1.378-1.708.304-1.093.587-2.193.903-3.28a21.313 21.313 0 014.007-7.6 418.063 418.063 0 012.523-3.032c.108-.13.232-.248.362-.35.327-.259.677-.264 1.01-.01.215.163.418.349.615.54a5.981 5.981 0 002.213 1.37c.203.074.418.124.632.13.446.006.672-.389.407-.755-.181-.248-.418-.451-.644-.665-.632-.592-1.09-1.286-1.236-2.16-.141-.84.04-1.628.35-2.39.135-.338.316-.665.52-.963.259-.39.36-.812.389-1.274.022-.384.067-.773.175-1.133.254-.869.813-1.472 1.699-1.731.615-.18.909-.609 1.066-1.195.35-1.313.667-2.638 1.084-3.935.689-2.136 1.733-4.098 3.2-5.811.955-1.116 2.123-1.906 3.613-2.125.723-.119 1.428.073 2.1.343.53.215 1.039.485 1.518.795.745.474 1.474.975 2.18 1.511 1.032.784 2.144 1.302 3.465 1.313.327 0 .655.074.982.119.627.09 1.118.501 1.22 1.127.123.772.13 1.545-.125 2.311-.288.88-.926 1.32-1.795 1.46-.423.062-.858.08-1.287.124zm-3.94 29.267l-.062-.028c.017-.073.023-.146.051-.208.689-1.708 1.913-2.83 3.686-3.332.982-.276 1.97-.225 2.958.006 1.072.248 1.462-.186 1.134-1.246a50.046 50.046 0 00-.52-1.55c-.676-1.889-1.518-3.698-2.652-5.366-1.056-1.556-2.41-2.627-4.346-2.875-.587-.08-1.174-.282-1.722-.513-1.185-.513-1.857-1.427-1.953-2.734a3.383 3.383 0 00-.062-.417c-.124-.553-.536-.767-1.061-.559-.147.063-.288.136-.435.21-.53.27-1.022.219-1.507-.136-1.202-.89-2.41-1.77-3.624-2.638-.502-.361-.863-.79-1.004-1.404-.136-.592-.497-1.043-1.022-1.364-.463-.282-.875-.265-1.31.068-.897.682-.982 2.22-.152 2.993.474.445 1.044.524 1.66.372.485-.124.93-.04 1.292.287.83.75 1.66 1.5 2.45 2.289.429.428.344.761-.158 1.116-.08.056-.158.096-.243.147-.463.27-.982.293-1.496.35-.361.039-.722.112-1.067.236-.31.113-.462.417-.423.665.04.27.271.524.593.564.316.04.638.022.954.022.564 0 1.123-.034 1.687-.017.638.023 1.276.085 1.914.13.254.017.514 0 .762.04 1.112.169 1.964.783 1.36 2.147-.288.643-.26 1.314-.073 1.962a292.36 292.36 0 001.829 6.122 5.52 5.52 0 01.186 2.587 29.785 29.785 0 01-1.287 4.983 15.31 15.31 0 01-.909 2.148c-.632 1.183-1.484 1.533-2.845 1.099-1.14-.367-2.24-.863-3.358-1.308a1.635 1.635 0 01-.384-.225c-.062-.051-.119-.175-.096-.231.028-.063.158-.119.232-.108.208.04.417.102.62.17.875.315 1.739.665 2.625.947 1.05.332 1.936.016 2.574-.88.215-.304.384-.643.559-.975.327-.643.305-1.263-.05-1.905-.492-.897-.825-1.85-.814-2.898 0-.186-.017-.377-.045-.563-.045-.322-.197-.592-.525-.666-.717-.157-1.445-.214-2.128.124-.909.451-1.79.959-2.692 1.415-.582.293-.875.727-.937 1.393-.04.383-.237.76-.39 1.127-.028.073-.186.163-.237.141-.079-.034-.158-.152-.175-.248-.034-.175-.017-.355-.028-.536-.04-.569-.356-.766-.88-.563-.097.04-.187.084-.283.124-1.197.49-2.393.986-3.601 1.465-.333.13-.615.31-.74.649-.191.524-.434 1.06-.49 1.606-.125 1.133.18 2.148 1.128 2.875.514.395 1.01.378 1.53-.011.598-.446.903-1.066 1.027-1.787.045-.27.074-.541.153-.8.034-.113.163-.266.26-.277.107-.011.27.09.332.192.09.146.147.332.147.502.006.315 0 .642-.056.952-.186.987-.604 1.838-1.513 2.368-.61.355-1.236.36-1.857.028-.604-.322-1.01-.84-1.304-1.438-.48-.97-.615-2-.547-3.066a2.787 2.787 0 00-.012-.614c-.045-.271-.242-.4-.508-.373-.542.062-1.016.496-1.021 1.038-.006.625.033 1.257.118 1.877.164 1.223.553 2.378 1.332 3.365 1.727 2.176 4.849 2.221 6.599.068.4-.49.694-1.066 1.01-1.618.316-.547.53-.665 1.123-.468.599.203 1.186.428 1.767.66 1.67.653 3.308 1.398 5.103 1.69.779.125 1.546.198 2.32.006 1.603-.394 2.46-1.51 2.895-3.01.198-.676.294-1.375.474-2.057.159-.615.34-1.23.565-1.821.158-.423.53-.654.988-.592.508.068 1.027.146 1.507.316.84.298 1.648.682 2.478 1.009.598.236 1.225.377 1.874.31 1.123-.119 1.981-1.173 1.45-2.34-.146-.32-.316-.648-.547-.913-1.067-1.24-2.37-2.159-3.98-2.536-2.398-.57-4.453-.017-5.983 2.023-.062.08-.13.152-.192.231zm7.48 15.913a.43.43 0 01.01.085c.616-.107 1.26-.13 1.84-.333 1.299-.456 2.18-1.415 2.755-2.643.768-1.646.853-3.366.435-5.119-.203-.857-.52-1.663-1.005-2.407-.412-.631-.976-.97-1.75-1.026a6.821 6.821 0 01-1.682-.315c-.937-.31-1.84-.705-2.766-1.049-.44-.163-.886-.315-1.337-.428-.53-.13-.96.084-1.298.485-.322.383-.271.806-.074 1.217.22.463.186.89-.017 1.353-.209.468-.429.953-.53 1.449-.446 2.108-.159 4.143.869 6.031.96 1.77 2.433 2.807 4.55 2.7zm-5.403-31.324v-.023c.548 0 1.09.006 1.637 0 .548-.01 1.09-.028 1.637-.05.187-.006.378-.029.56-.074.36-.09.58-.327.603-.625.023-.305-.141-.564-.508-.7-.344-.123-.705-.185-1.061-.281-.463-.119-.937-.209-1.383-.372-.367-.136-.615-.457-.542-.868.18-.959.339-1.934 1.282-2.52.733-.457.959-1.161.807-1.979a1.862 1.862 0 00-.39-.817c-.338-.395-.835-.366-1.134.062-.187.265-.288.603-.407.913-.22.564-.378 1.161-.649 1.703-.3.597-.542.637-1.135.343-.056-.028-.118-.056-.175-.084a2.65 2.65 0 00-2.997.507c-.824.829-1.09 2.142-.632 3.117.497 1.06 1.434 1.534 2.495 1.72.644.124 1.327.028 1.992.028z" fill="#F10000"/><path d="M43.111 53.726c.045-.671.056-1.449.452-2.142.096-.17.209-.344.36-.457.108-.079.323-.118.43-.068.124.063.27.254.265.384-.006.23-.085.479-.192.688-.559 1.127-.643 2.282-.231 3.466.22.632.598 1.145 1.174 1.5.514.315 1.033.327 1.54-.012.227-.152.447-.32.616-.53.587-.738.79-1.606.734-2.536-.017-.276-.124-.519-.412-.614-.288-.096-.486.073-.66.264-.136.153-.249.339-.396.474a4.117 4.117 0 01-.637.496c-.204.13-.424.079-.588-.102-.163-.18-.09-.36.012-.54.451-.779.908-1.556 1.354-2.334.13-.226.226-.474.34-.71.146-.3.315-.345.58-.136.48.372.796.88 1.028 1.426.717 1.725.655 3.427-.271 5.062-.627 1.105-1.812 1.607-2.947 1.28-.615-.175-1.06-.586-1.433-1.088-.757-1.015-1.118-2.232-1.118-3.771zM40.989 26.815c-.011.406 0 .817-.277 1.156-.096.118-.22.259-.355.304-.142.045-.356.034-.463-.05-.08-.063-.108-.31-.051-.418.333-.67.327-1.336.04-2.012-.074-.18-.147-.4.067-.536.22-.14.418-.022.587.13.266.248.395.57.43.924.01.164.01.333.022.502z" fill="#F10000"/><path d="M78.748 25.512c1.139-.729 2.34-1.329 3.66-1.626 2.673-.595 5.317-.548 7.85.594 2.34 1.055 3.654 2.915 4.04 5.427.087.571.116 1.16.116 1.743.011 4.43.006 8.859.006 13.289v.402c-.625.093-1.238.204-1.85.274-1.098.122-2.195.134-3.28-.076-1.273-.245-2.061-1.09-2.219-2.366a7.495 7.495 0 01-.058-.956c-.006-3.428 0-6.855-.006-10.288 0-.291-.023-.582-.082-.868-.192-.927-.892-1.51-1.931-1.673-1.045-.169-1.979.11-2.86.653-.146.087-.234.192-.181.379.023.07.006.151.006.233 0 4.768 0 9.535.005 14.309 0 .28-.081.379-.35.431-1.517.286-3.04.414-4.582.193-1.459-.21-2.334-1.16-2.457-2.67a9.424 9.424 0 01-.029-.816c0-3.392 0-6.778-.006-10.17 0-.251-.011-.508-.058-.753-.193-.979-.905-1.597-2.014-1.789-1.015-.175-1.95.064-2.819.577-.076.047-.134.18-.14.274-.011.653-.006 1.3-.006 1.953 0 4.266 0 8.527.006 12.793 0 .25-.064.35-.32.403-1.594.308-3.2.448-4.81.157-1.296-.233-2.078-1.09-2.236-2.413a7.957 7.957 0 01-.058-.985c0-4.33.017-8.656-.006-12.975-.006-1.2.432-2.139 1.354-2.885 1.115-.909 2.393-1.515 3.747-1.958 2.136-.7 4.325-.956 6.56-.705 1.78.198 3.456.728 4.91 1.83.028.023.063.04.098.058zM107.12 46.04c-2.13-.011-4.051-.338-5.848-1.23-2.434-1.206-4.12-3.094-5.008-5.647-.998-2.88-1.021-5.806-.023-8.685 1.144-3.299 3.46-5.432 6.805-6.4 2.848-.827 5.714-.792 8.51.24 3.187 1.177 5.311 3.415 6.286 6.673.834 2.798.776 5.613-.204 8.358-1.214 3.392-3.689 5.427-7.162 6.295-1.15.286-2.323.385-3.356.396zm-4.004-11.016c.041.373.076 1.026.187 1.667.181 1.044.566 2.005 1.383 2.722 1.774 1.55 4.518.904 5.498-1.288.561-1.259.631-2.588.584-3.934-.029-.91-.175-1.795-.537-2.635-.59-1.352-1.588-2.162-3.099-2.214-1.576-.059-2.697.646-3.374 2.069-.502 1.055-.601 2.191-.642 3.613zM155.231 32.536c-.029.023-.035.035-.041.035-.391.093-.537.32-.49.728.041.356-.07.641-.444.851-.793.449-1.278 1.2-1.692 1.994-.099.186-.193.384-.286.57-.175.339-.38.613-.776.77-.543.216-.8.734-1.057 1.23a1.94 1.94 0 01-.438.56c-.338.303-.706.576-1.085.88.099.075.157.116.216.157-.006.012-.006.035-.018.047-.543.513-.858 1.165-1.132 1.847a.813.813 0 01-.298.362c-.519.35-.858.845-1.103 1.398-.251.577-.449 1.178-.689 1.76-.035.088-.146.199-.227.21-3.158.315-6.152-.116-8.808-1.987-1.955-1.376-3.198-3.264-3.811-5.549-.741-2.774-.706-5.543.333-8.236 1.336-3.468 3.939-5.513 7.517-6.306 2.615-.577 5.23-.495 7.751.478 3.73 1.44 5.849 4.214 6.572 8.107.006.03.006.059.006.094zm-7.407 2.005c-.04-1.125-.163-2.18-.636-3.165-.613-1.27-1.605-1.994-3.041-2.046-1.511-.052-2.614.606-3.297 1.953-.397.775-.566 1.608-.636 2.46-.1 1.316-.065 2.622.373 3.881.35 1.008.928 1.836 1.926 2.296 1.885.857 3.905.053 4.734-1.876.49-1.131.583-2.338.577-3.503z" fill="#191A1C"/><path d="M119.289 19.963c1.693-.408 3.368-.623 5.066-.245 1.454.327 2.148 1.131 2.224 2.623.053 1.038.029 2.075.035 3.119v.378h.368c1.693 0 3.385 0 5.078.006.116 0 .292.059.332.14.59 1.154.847 2.378.578 3.66-.257 1.236-1.074 1.86-2.41 1.866-1.208.005-2.411 0-3.619 0-.093 0-.193.005-.327.017v6.301c0 .245.006.49.047.728.122.799.636 1.242 1.383 1.44 1.214.32 2.411.157 3.596-.152.239-.064.35-.011.496.175 1.167 1.516.898 3.562-.17 4.657-.636.647-1.424.968-2.288 1.12-2.06.355-4.109.32-6.11-.327-2.323-.752-3.695-2.355-4.092-4.756a12.758 12.758 0 01-.175-2.057c-.012-6.109-.006-12.217-.006-18.325-.006-.129-.006-.24-.006-.368z" fill="#191A1C"/><path d="M147.133 47.387c-.526-.03-.636-.129-.549-.63a7.35 7.35 0 01.415-1.352c.239-.6.484-1.212.811-1.766.198-.338.554-.577.84-.869.076-.081.164-.163.205-.262.274-.71.595-1.393 1.19-1.935-.035-.029-.058-.052-.087-.07-.03-.023-.065-.046-.146-.105.309-.256.589-.518.899-.74a1.96 1.96 0 00.688-.833c.251-.572.625-1.055 1.273-1.242a.395.395 0 00.192-.163c.152-.245.31-.495.438-.752.484-.99 1.074-1.894 2.084-2.442a.27.27 0 00.122-.175c.035-.187.07-.385.076-.571.012-.472 0-.49.438-.641.56-.193.98-.548 1.296-1.032.251-.39.472-.798.712-1.2.42-.7.957-1.265 1.704-1.627a.441.441 0 00.204-.25c.245-.828.73-1.463 1.419-1.97.326-.24.636-.508.945-.776.368-.32.595-.734.753-1.195a.998.998 0 01.309-.42c.724-.582 1.413-1.194 1.909-1.987.052-.087.105-.175.181-.309-.426-.029-.8-.058-1.173-.081a39.196 39.196 0 00-6.461.151c-.269.03-.549.024-.812.082-.187.04-.385.122-.537.239a.465.465 0 01-.42.099c-.175-.04-.356-.082-.531-.064-.111.012-.234.116-.309.21-.24.28-.497.472-.893.443-1.46-.123-2.925-.204-4.384-.362-.519-.058-1.021-.297-1.529-.449-.414-.122-.63-.42-.77-.804-.193-.536-.181-1.084-.094-1.638.1-.623.205-1.253.315-1.935.263-.035.619-.058.964-.14.642-.151 1.272-.344 1.914-.507.187-.046.385-.052.578-.058.677 0 1.354 0 2.031.012.251.005.496.052.747.081.029-.21.041-.39.076-.571.035-.175.146-.268.338-.221.21.052.438.058.619.157.484.256.992.239 1.506.192.706-.058 1.412-.157 2.113.053.076.023.222-.082.297-.163.298-.333.502-.333.818-.018.198.198.437.303.741.233.508-.122 1.015-.128 1.523.035.093.03.21.03.309.012.456-.076.911-.163 1.378-.25.023-.106.052-.257.099-.496 1.127 1.002 2.259 1.148 3.403.204.297.175.216.384.099.623h.73a29.98 29.98 0 01-.053-.763c.467.309.846.56 1.22.816.338.227.671.332 1.109.28.94-.111 1.78.14 2.463.85.624.648 1.208 1.318 1.541 2.169.117.297.035.425-.216.606-.66.472-1.354.915-1.95 1.463-1.307 1.195-2.276 2.646-2.947 4.284-.082.198-.134.402-.199.606-.081.268-.25.379-.501.262-.158-.07-.24-.04-.345.076-1.185 1.317-2.299 2.687-3.105 4.278-.058.123-.152.228-.21.35-.093.192-.233.268-.444.227-.169-.035-.297.018-.297.21 0 .466-.298.758-.578 1.067a123.37 123.37 0 00-5.913 7.099c-.478.624-1.027 1.195-1.54 1.79-.07.075-.135.157-.246.285.462.023.858.047 1.25.064.677.035 1.359.07 2.036.11.514.03 1.01-.057 1.483-.25.146-.058.251-.047.356.082.426.495.951.787 1.634.746a.506.506 0 01.228.035c.835.367 1.739.14 2.597.291.164.03.362-.081.525-.163.152-.076.281-.21.444-.338.992 1.096 2.335.92 3.63 1.06-.169-.716.117-1.317.339-1.917.327-.892.689-1.772 1.056-2.646.561-1.335.753-2.763 1.051-4.167.181-.857.379-1.708 1.004-2.384.222-.24.14-.542.029-.799-.117-.28-.064-.431.187-.612 1.103-.798 2.043-.828 3.169-.058.414.285.84.56 1.243.862.094.07.164.234.169.356.094 2.057-.367 4.028-.939 5.98-.543 1.842-1.109 3.678-1.629 5.526-.274.985-.385 1.999-.397 3.025 0 .285.047.536.129.798.21.659.041 1.306-.193 1.93-.023.058-.181.104-.257.087-.151-.04-.297-.128-.414-.187-.175.28-.344.56-.519.851l-.613-.757a58.79 58.79 0 01-.269.722c-.093-.075-.169-.134-.245-.198-.286.385-.309.42-.729.163-.602-.367-1.209-.547-1.932-.43-.549.087-1.168.098-1.652-.2-.502-.308-1.021-.302-1.564-.355a6.502 6.502 0 01-1.413-.303 7.82 7.82 0 00-3.046-.355c-1.355.105-2.679 0-3.952-.525-.134-.052-.303-.035-.455-.029-1.372.03-2.737.087-4.109.087-.449 0-.87 0-1.307.135-.345.104-.73.099-1.092.128-.309.023-.619.023-.934.035-.332.011-.636.099-.881.332-.128.122-.245.128-.414.064-.613-.233-1.238-.437-1.851-.676-.122-.047-.28-.17-.309-.286-.105-.402-.158-.816-.228-1.224-.011-.116-.005-.221-.011-.32zM212.351 46.489c-.181.035-.339.052-.485.093a.515.515 0 00-.204.134c-.572.525-1.109 1.096-1.716 1.574-1.319 1.032-2.807 1.603-4.517 1.48a6.92 6.92 0 01-3.053-.973.516.516 0 01-.21-.192c-.87-1.702-1.798-3.375-2.3-5.234-.134-.496-.233-.997-.344-1.498-.012-.053 0-.111.012-.17.286-1.404.577-2.809.863-4.213.076-.362.123-.729.211-1.084.029-.129.134-.245.18-.368.047-.122.094-.25.094-.378 0-.251.058-.426.338-.49.205-.047.403-.14.596-.227.041-.018.07-.111.076-.17.029-.39.274-.6.589-.763.064-.035.152-.1.163-.163.088-.39.351-.63.707-.752.338-.117.513-.32.496-.688-.006-.087.023-.175.041-.256.093-.56.35-.682.875-.39.152-.31.403-.426.73-.31.525-.787.671-.81 1.348-.245.286-.186.444-.472.519-.798.065-.268.263-.385.432-.192.269.314.596.227.911.273.047.006.093.006.14.006.193-.32.251-.291.613-.204.653.158 1.272.42 1.967.455 1.576.082 2.895.688 3.688 2.116.211.379.432.635.823.804.473.204.788.612 1.109 1.009.245.303.543.57.835.827.123.105.193.175.152.356-.35 1.65-.718 3.293-1.033 4.954-.21 1.113-.333 2.244-.496 3.363-.012.087 0 .175 0 .268.105.04.21.088.321.128.005-.005.023-.017.029-.035.076-.186.146-.53.233-.536.257-.011.543.058.765.193.175.104.292.145.49.087.391-.117.893.192.957.554.064.384.134.775.175 1.165.065.595.111 1.195.152 1.795.006.059-.047.146-.099.181-.56.344-.876.886-1.226 1.417-.327.5-.677 1.002-1.109 1.41-.671.635-1.558.746-2.451.74-.07 0-.164-.093-.21-.163-.327-.495-.636-.997-.963-1.492-.205-.309-.374-.653-.636-.898-.555-.524-.613-1.183-.625-1.87.006-.228.035-.444.047-.63zm-4.214-10.76c-.175-.332-.234-.35-.52-.122-.508.402-.928.857-.957 1.562-.006.088-.082.233-.14.239-.595.087-.881.53-1.138.997-.473.874-.607 1.83-.677 2.803-.024.356-.018.729-.391.933-.041.023-.082.07-.088.11a42.9 42.9 0 00-.222 1.493c-.005.07.082.157.14.221.263.28.543.542.794.834.14.157.222.367.35.536.041.058.176.105.228.081.911-.378 1.874-.687 2.621-1.37.513-.465 1.097-.926 1.43-1.515a10.982 10.982 0 012.661-3.13.99.99 0 00.309-.46c.205-.659.357-1.329.572-1.982.135-.414.123-.688-.286-.962-.519-.35-.846-.926-1.447-1.194-.648-.292-1.272-.397-1.903.029-.437.297-.881.588-1.336.897zM183.868 45.143c.45-.105.794.035 1.109.32.041.041.175.03.228-.005.157-.117.303-.082.461-.006.455.21.916.42 1.377.623.316.14.561.333.625.706.017.093.111.204.198.256.199.11.24.268.234.484a8.78 8.78 0 00.041 1.037c.105.997-.701 1.889-1.746 1.924a3.82 3.82 0 01-1.669-.35c-.432-.192-.858-.315-1.342-.309-.374.006-.747-.081-1.15-.128.018.087.018.151.041.21.122.314.047.472-.292.542-1.004.198-2.778-.198-3.508-1.416-.07-.117-.198-.199-.28-.315-.052-.07-.07-.17-.087-.257-.211-1.451.04-2.856.437-4.249.415-1.445.701-2.931 1.197-4.342.659-1.865.992-3.783 1.325-5.712.572-3.293 1.22-6.58 1.815-9.868.257-1.434.449-2.873.694-4.307.141-.81.327-1.615.514-2.419.023-.099.152-.21.257-.25.636-.234 1.167-.041 1.582.472.192.233.356.483.531.728.245.35.531.618.998.676.455.059.461.105.42.548-.193 2.098-.333 4.197-.59 6.29-.303 2.465-.665 4.919-1.068 7.372-.63 3.859-1.447 7.676-2.334 11.483-.006.064-.006.14-.018.262z" fill="#F10000"/><path d="M195.32 45.597c.478-.14.817.03 1.126.303.041.041.158-.005.239-.005.152-.006.327-.047.461.005.467.187.923.414 1.378.618.303.14.554.315.601.682.012.076.064.187.128.21.409.175.321.513.31.84-.006.168-.024.349.011.512a1.751 1.751 0 01-1.505 2.128c-.689.087-1.331-.094-1.956-.356-.35-.146-.694-.262-1.085-.274-.432-.011-.87-.081-1.325-.128.011.07.017.134.041.192.122.338.046.484-.304.56-1.266.274-2.825-.455-3.56-1.504-.467-.665-.38-1.358-.356-2.046.041-1.44.537-2.798.916-4.167.502-1.813 1.097-3.596 1.547-5.42.303-1.219.42-2.484.648-3.725.56-3.06 1.15-6.12 1.71-9.18.257-1.405.443-2.815.689-4.22.151-.869.35-1.725.525-2.594.035-.186.14-.262.321-.309.683-.186 1.202.041 1.611.583.204.274.391.554.595.828.199.268.444.431.8.478.496.058.496.093.467.6-.368 5.858-1.185 11.657-2.335 17.41-.514 2.559-1.086 5.1-1.634 7.653-.024.081-.035.163-.064.326zM180.611 24.125c0 1.09-.274 2.017-.934 2.798-.858 1.026-1.99 1.323-3.256 1.078-1.238-.239-.981-.093-1.512-1.183-.671-1.387-.747-2.81-.123-4.243.076-.17.158-.24.339-.251.694-.035 1.214-.338 1.547-.968.175-.326.437-.408.758-.233.251.14.491.315.701.513.227.216.478.32.782.327.77.017 1.173.378 1.272 1.148.012.081.024.186.076.239.088.093.274.14.304.239.064.198.04.414.046.536z" fill="#F10000"/></svg>