<?xml version="1.0" standalone="no"?>
<!DOCTYPE svg PUBLIC "-//W3C//DTD SVG 20010904//EN"
 "http://www.w3.org/TR/2001/REC-SVG-20010904/DTD/svg10.dtd">
<svg version="1.0" xmlns="http://www.w3.org/2000/svg"
 width="108.000000pt" height="122.000000pt" viewBox="0 0 108.000000 122.000000"
 preserveAspectRatio="xMidYMid meet">

<g transform="translate(0.000000,122.000000) scale(0.100000,-0.100000)"
fill="#000000" stroke="none">
<path d="M445 1108 c-16 -6 -49 -24 -71 -40 -125 -89 -132 -292 -14 -387 83
-67 175 -80 265 -37 194 90 195 353 2 453 -39 20 -142 26 -182 11z m183 -86
c57 -45 75 -76 80 -136 8 -103 -63 -192 -162 -203 -168 -19 -272 169 -169 306
58 76 179 92 251 33z"/>
<path d="M257 605 c-100 -35 -157 -153 -157 -325 0 -74 3 -90 25 -122 13 -20
44 -45 68 -57 41 -20 59 -21 338 -21 286 0 296 1 339 22 62 32 90 83 90 167 0
193 -72 326 -189 346 -32 5 -50 0 -115 -34 -108 -58 -182 -53 -286 16 -40 26
-59 28 -113 8z m118 -80 c69 -41 106 -49 186 -42 41 3 78 16 121 39 67 37 86
38 131 6 52 -37 87 -138 87 -250 0 -61 -3 -71 -29 -100 l-29 -33 -312 0 -312
0 -29 33 c-27 30 -29 38 -29 111 0 133 50 239 125 260 16 5 31 10 31 10 1 1
28 -15 59 -34z"/>
</g>
</svg>
