<svg width="25" height="30" fill="none" xmlns="http://www.w3.org/2000/svg"><path fill-rule="evenodd" clip-rule="evenodd" d="M17.905 11.2a6.31 6.31 0 00.428-2.294c0-3.364-2.612-6.094-5.833-6.094-3.22 0-5.833 2.73-5.833 6.094 0 .812.152 1.586.427 2.294a6.17 6.17 0 001.348 2.083C9.492 14.346 10.923 15 12.5 15s3.008-.654 4.058-1.717a6.07 6.07 0 001.348-2.083zm2.664.815a9.147 9.147 0 00.542-3.109C21.111 4.072 17.336 0 12.5 0S3.889 4.072 3.889 8.906c0 1.087.19 2.136.542 3.109-.298.168-.583.36-.854.574-1.117.886-1.858 2.052-2.354 3.205C.253 18.046 0 20.752 0 22.982 0 26.162 2.099 30 6.013 30h12.973C22.901 30 25 26.162 25 22.982c0-2.23-.252-4.936-1.223-7.188-.496-1.153-1.237-2.319-2.354-3.205a6.536 6.536 0 00-.854-.574zm-1.35 2.458c-.555-.313-1.205-.489-1.964-.489-1.23 1.254-2.902 2.032-4.755 2.032-1.853 0-3.524-.778-4.755-2.032-.76 0-1.41.176-1.965.49-2.356 1.327-3.002 5.13-3.002 8.508 0 2.317 1.458 4.206 3.235 4.206h12.973c1.778 0 3.236-1.889 3.236-4.206 0-3.377-.646-7.18-3.002-8.509z" fill="#000"/></svg>